<?xml version="1.0" encoding="utf-8"?> <!-- Generator: IcoMoon.io --> <!DOCTYPE svg PUBLIC "-//W3C//DTD SVG 1.1//EN" "http://www.w3.org/Graphics/SVG/1.1/DTD/svg11.dtd"> <svg width="512" height="512" viewBox="0 0 512 512" xmlns="http://www.w3.org/2000/svg" xmlns:xlink="http://www.w3.org/1999/xlink" fill="#505050"><path d="M 144,192L 48,192 c-8.8,0-16,7.2-16,16l0,288 c0,8.8, 7.2,16, 16,16l 96,0 c 8.8,0, 16-7.2, 16-16L 160,208 C 160,199.2, 152.8,192, 144,192z M 144,480 L 48,480 L 48,352 l 96,0 L 144,480 zM 304,128l-96,0 c-8.8,0-16,7.2-16,16l0,352 c0,8.8, 7.2,16, 16,16l 96,0 c 8.8,0, 16-7.2, 16-16L 320,144 C 320,135.2, 312.8,128, 304,128z M 304,480l-96,0 L 208,320 l 96,0 L 304,480 zM 464,64l-96,0 c-8.8,0-16,7.2-16,16l0,416 c0,8.8, 7.2,16, 16,16l 96,0 c 8.8,0, 16-7.2, 16-16L 480,80 C 480,71.2, 472.8,64, 464,64z M 464,480l-96,0 L 368,288 l 96,0 L 464,480 z" ></path></svg>