<?xml version="1.0" encoding="utf-8"?> <!-- Generator: IcoMoon.io --> <!DOCTYPE svg PUBLIC "-//W3C//DTD SVG 1.1//EN" "http://www.w3.org/Graphics/SVG/1.1/DTD/svg11.dtd"> <svg width="416" height="448" viewBox="0 0 416 448" xmlns="http://www.w3.org/2000/svg" xmlns:xlink="http://www.w3.org/1999/xlink" fill="#505050"><path d="M 212.00,424.00q0.00-4.00 -4.00-4.00q-14.75,0.00 -25.375-10.625t-10.625-25.375q0.00-4.00 -4.00-4.00t-4.00,4.00q0.00,18.25 12.875,31.125t 31.125,12.875q 4.00,0.00 4.00-4.00zM 45.75,352.00l 324.50,0.00 q-41.00-45.25 -61.625-102.875t-20.625-121.125q0.00-64.00 -80.00-64.00t-80.00,64.00q0.00,63.50 -20.625,121.125t-61.625,102.875zM 416.00,352.00q0.00,13.00 -9.50,22.50t-22.50,9.50 l-112.00,0.00 q0.00,26.50 -18.75,45.25t-45.25,18.75t-45.25-18.75t-18.75-45.25l-112.00,0.00 q-13.00,0.00 -22.50-9.50t-9.50-22.50q 47.50-40.25 71.75-99.375t 24.25-124.625q0.00-41.25 24.00-65.50t 66.00-29.25q-2.00-4.50 -2.00-9.25q0.00-10.00 7.00-17.00t 17.00-7.00t 17.00,7.00t 7.00,17.00q0.00,4.75 -2.00,9.25q 42.00,5.00 66.00,29.25t 24.00,65.50q0.00,65.50 24.25,124.625t 71.75,99.375z" ></path></svg>