<?xml version="1.0" encoding="utf-8"?> <!-- Generator: IcoMoon.io --> <!DOCTYPE svg PUBLIC "-//W3C//DTD SVG 1.1//EN" "http://www.w3.org/Graphics/SVG/1.1/DTD/svg11.dtd"> <svg width="512" height="512" viewBox="0 0 512 512" xmlns="http://www.w3.org/2000/svg" xmlns:xlink="http://www.w3.org/1999/xlink" fill="#505050"><path d="M0,256c0,141.385, 114.615,256, 256,256c 141.386,0, 256-114.615, 256-256S 397.386,0, 256,0C 114.615,0,0,114.615,0,256z M 448,256 c0,36.618-10.256,70.84-28.044,99.956L 156.045,92.044C 185.16,74.255, 219.382,64, 256,64C 362.038,64, 448,149.961, 448,256z M 64,256 c0-36.618, 10.256-70.839, 28.045-99.956l 263.911,263.912C 326.839,437.745, 292.618,448, 256,448C 149.962,448, 64,362.039, 64,256z" ></path></svg>