<?xml version="1.0" encoding="utf-8"?> <!-- Generator: IcoMoon.io --> <!DOCTYPE svg PUBLIC "-//W3C//DTD SVG 1.1//EN" "http://www.w3.org/Graphics/SVG/1.1/DTD/svg11.dtd"> <svg width="224" height="448" viewBox="0 0 224 448" xmlns="http://www.w3.org/2000/svg" xmlns:xlink="http://www.w3.org/1999/xlink" fill="#505050"><path d="M 221.25,141.50q 4.50,5.00 1.75,11.00l-135.00,289.25q-3.25,6.25 -10.50,6.25q-1.00,0.00 -3.50-0.50q-4.25-1.25 -6.375-4.75t-1.125-7.50l 49.25-202.00l-101.50,25.25q-1.00,0.25 -3.00,0.25q-4.50,0.00 -7.75-2.75q-4.50-3.75 -3.25-9.75l 50.25-206.25q 1.00-3.50 4.00-5.75t 7.00-2.25l 82.00,0.00 q 4.75,0.00 8.00,3.125t 3.25,7.375q0.00,2.00 -1.25,4.50l-42.75,115.75l 99.00-24.50q 2.00-0.50 3.00-0.50q 4.75,0.00 8.50,3.75z" ></path></svg>