<?xml version="1.0" encoding="utf-8"?> <!-- Generator: IcoMoon.io --> <!DOCTYPE svg PUBLIC "-//W3C//DTD SVG 1.1//EN" "http://www.w3.org/Graphics/SVG/1.1/DTD/svg11.dtd"> <svg width="416" height="448" viewBox="0 0 416 448" xmlns="http://www.w3.org/2000/svg" xmlns:xlink="http://www.w3.org/1999/xlink" fill="#505050"><path d="M 409.75,119.50q 10.00,14.25 4.50,32.25l-68.75,226.50q-4.75,16.00 -19.125,26.875t-30.625,10.875l-230.75,0.00 q-19.25,0.00 -37.125-13.375t-24.875-32.875q-6.00-16.75 -0.50-31.75q0.00-1.00 0.75-6.75t 1.00-9.25q 0.25-2.00 -0.75-5.375t-0.75-4.875q 0.50-2.75 2.00-5.25t 4.125-5.875t 4.125-5.875q 5.75-9.50 11.25-22.875t 7.50-22.875q 0.75-2.50 0.125-7.50t-0.125-7.00q 0.75-2.75 4.25-7.00t 4.25-5.75 q 5.25-9.00 10.50-23.00t 6.25-22.50q 0.25-2.25 -0.625-8.00t 0.125-7.00q 1.00-3.25 5.50-7.625t 5.50-5.625q 4.75-6.50 10.625-21.125t 6.875-24.125q 0.25-2.00 -0.75-6.375t-0.50-6.625q 0.50-2.00 2.25-4.50t 4.50-5.75t 4.25-5.25q 2.00-3.00 4.125-7.625t 3.75-8.75t 4.00-9.00t 4.875-8.00t 6.625-5.875t 9.00-2.875t 11.875,1.375l-0.25,0.75q 9.50-2.25 12.75-2.25l 190.25,0.00 q 18.50,0.00 28.50,14.00t 4.50,32.50l-68.50,226.50 q-9.00,29.75 -17.875,38.375t-32.125,8.625l-217.25,0.00 q-6.75,0.00 -9.50,3.75q-2.75,4.00 -0.25,10.75q 6.00,17.50 36.00,17.50l 230.75,0.00 q 7.25,0.00 14.00-3.875t 8.75-10.375l 75.00-246.75q 1.75-5.50 1.25-14.25q 9.50,3.75 14.75,10.75zM 143.75,120.00q-1.00,3.25 0.50,5.625t 5.00,2.375l 152.00,0.00 q 3.25,0.00 6.375-2.375t 4.125-5.625l 5.25-16.00q 1.00-3.25 -0.50-5.625t-5.00-2.375l-152.00,0.00 q-3.25,0.00 -6.375,2.375 t-4.125,5.625zM 123.00,184.00q-1.00,3.25 0.50,5.625t 5.00,2.375l 152.00,0.00 q 3.25,0.00 6.375-2.375t 4.125-5.625l 5.25-16.00q 1.00-3.25 -0.50-5.625t-5.00-2.375l-152.00,0.00 q-3.25,0.00 -6.375,2.375t-4.125,5.625z" ></path></svg>