<?xml version="1.0" encoding="utf-8"?> <!-- Generator: IcoMoon.io --> <!DOCTYPE svg PUBLIC "-//W3C//DTD SVG 1.1//EN" "http://www.w3.org/Graphics/SVG/1.1/DTD/svg11.dtd"> <svg width="576" height="512" viewBox="0 0 576 512" xmlns="http://www.w3.org/2000/svg" xmlns:xlink="http://www.w3.org/1999/xlink" fill="#505050"><path d="M 240,0 L 240,0 C 372.548,0 480,86.957 480,194.224 C 480,301.491 372.548,388.448 240,388.448 C 227.271,388.448 214.777,387.638 202.583,386.093 C 151.030,437.44 91.497,446.647 32,448 L 32,435.433 C 64.126,419.756 90,391.2 90,358.566 C 90,354.013 89.644,349.542 88.985,345.169 C 34.706,309.562 0,255.175 0,194.224 C 0,86.957 107.452,0 240,0 ZM 498,435.343 C 498,463.314 516.157,487.792 544,501.229 L 544,512 C 492.437,510.841 445.107,502.949 400.429,458.937 C 389.859,460.262 379.032,460.957 368,460.957 C 320.265,460.957 276.296,448.078 241.193,426.437 C 313.53,426.184 381.823,403.010 433.61,361.101 C 459.714,339.975 480.307,315.188 494.817,287.427 C 510.2,257.994 518,226.636 518,194.224 C 518,189 517.775,183.806 517.371,178.64 C 553.656,208.607 576,249.451 576,294.478 C 576,346.722 545.921,393.339 498.88,423.86 C 498.309,427.608 498,431.44 498,435.343 Z" ></path></svg>