<?xml version="1.0" encoding="utf-8"?> <!-- Generator: IcoMoon.io --> <!DOCTYPE svg PUBLIC "-//W3C//DTD SVG 1.1//EN" "http://www.w3.org/Graphics/SVG/1.1/DTD/svg11.dtd"> <svg width="512" height="512" viewBox="0 0 512 512" xmlns="http://www.w3.org/2000/svg" xmlns:xlink="http://www.w3.org/1999/xlink" fill="#505050"><path d="M 364.496,256C 433.373,212.333, 480,128.396, 480,32c0-10.838-0.596-21.517-1.739-32L 33.74,0 C 32.595,10.484, 32,21.163, 32,32 c0,96.396, 46.627,180.333, 115.503,224C 78.627,299.667, 32,383.604, 32,480c0,10.838, 0.595,21.517, 1.739,32l 444.521,0 c 1.144-10.483, 1.739-21.162, 1.739-32C 480,383.604, 433.373,299.667, 364.496,256z M 80,480c0-93.456, 40.081-172.707, 112-198.854 l0-50.293 l0,0 C 120.081,204.708, 80,125.457, 80,32l0,0 l 352,0 l0,0 c0,93.457-40.081,172.708-112,198.853l0,50.293 C 391.919,307.293, 432,386.544, 432,480L 80,480 zM 309.813,334.797c-35.827-20.322-37.804-46.684-37.813-62.683L 272,240 c0-15.997, 1.902-42.457, 37.872-62.832 c 19.252-11.182, 35.904-28.174, 48.524-49.168L 153.605,128 c 12.633,21.016, 29.306,38.021, 48.583,49.203 c 35.827,20.322, 37.803,46.683, 37.813,62.683L 240.001,272 c0,15.996-1.902,42.457-37.872,62.832c-36.311,21.090-63.369,62.842-71.545,113.168 l 250.835,0 C 373.237,397.646, 346.154,355.876, 309.813,334.797z" ></path></svg>