<?xml version="1.0" encoding="utf-8"?> <!-- Generator: IcoMoon.io --> <!DOCTYPE svg PUBLIC "-//W3C//DTD SVG 1.1//EN" "http://www.w3.org/Graphics/SVG/1.1/DTD/svg11.dtd"> <svg width="416" height="448" viewBox="0 0 416 448" xmlns="http://www.w3.org/2000/svg" xmlns:xlink="http://www.w3.org/1999/xlink" fill="#505050"><path d="M 32.00,416.00l 72.00,0.00 l0.00-72.00 l-72.00,0.00 l0.00,72.00 zM 120.00,416.00l 80.00,0.00 l0.00-72.00 l-80.00,0.00 l0.00,72.00 zM 32.00,328.00l 72.00,0.00 l0.00-80.00 l-72.00,0.00 l0.00,80.00 zM 120.00,328.00l 80.00,0.00 l0.00-80.00 l-80.00,0.00 l0.00,80.00 zM 32.00,232.00l 72.00,0.00 l0.00-72.00 l-72.00,0.00 l0.00,72.00 zM 216.00,416.00l 80.00,0.00 l0.00-72.00 l-80.00,0.00 l0.00,72.00 zM 120.00,232.00l 80.00,0.00 l0.00-72.00 l-80.00,0.00 l0.00,72.00 zM 312.00,416.00l 72.00,0.00 l0.00-72.00 l-72.00,0.00 l0.00,72.00 zM 216.00,328.00l 80.00,0.00 l0.00-80.00 l-80.00,0.00 l0.00,80.00 z M 128.00,112.00l0.00-72.00 q0.00-3.25 -2.375-5.625t-5.625-2.375l-16.00,0.00 q-3.25,0.00 -5.625,2.375t-2.375,5.625l0.00,72.00 q0.00,3.25 2.375,5.625t 5.625,2.375l 16.00,0.00 q 3.25,0.00 5.625-2.375t 2.375-5.625zM 312.00,328.00l 72.00,0.00 l0.00-80.00 l-72.00,0.00 l0.00,80.00 zM 216.00,232.00l 80.00,0.00 l0.00-72.00 l-80.00,0.00 l0.00,72.00 zM 312.00,232.00l 72.00,0.00 l0.00-72.00 l-72.00,0.00 l0.00,72.00 zM 320.00,112.00l0.00-72.00 q0.00-3.25 -2.375-5.625t-5.625-2.375l-16.00,0.00 q-3.25,0.00 -5.625,2.375t-2.375,5.625l0.00,72.00 q0.00,3.25 2.375,5.625t 5.625,2.375l 16.00,0.00 q 3.25,0.00 5.625-2.375t 2.375-5.625zM 416.00,96.00l0.00,320.00 q0.00,13.00 -9.50,22.50t-22.50,9.50l-352.00,0.00 q-13.00,0.00 -22.50-9.50t-9.50-22.50l0.00-320.00 q0.00-13.00 9.50-22.50t 22.50-9.50l 32.00,0.00 l0.00-24.00 q0.00-16.50 11.75-28.25t 28.25-11.75l 16.00,0.00 q 16.50,0.00 28.25,11.75t 11.75,28.25l0.00,24.00 l 96.00,0.00 l0.00-24.00 q0.00-16.50 11.75-28.25t 28.25-11.75 l 16.00,0.00 q 16.50,0.00 28.25,11.75t 11.75,28.25l0.00,24.00 l 32.00,0.00 q 13.00,0.00 22.50,9.50t 9.50,22.50z" ></path></svg>