<?xml version="1.0" encoding="utf-8"?> <!-- Generator: IcoMoon.io --> <!DOCTYPE svg PUBLIC "-//W3C//DTD SVG 1.1//EN" "http://www.w3.org/Graphics/SVG/1.1/DTD/svg11.dtd"> <svg width="512" height="512" viewBox="0 0 512 512" xmlns="http://www.w3.org/2000/svg" xmlns:xlink="http://www.w3.org/1999/xlink" fill="#505050"><path d="M 160,192L 224,192L 224,256L 160,256zM 256,192L 320,192L 320,256L 256,256zM 352,192L 416,192L 416,256L 352,256zM 64,384L 128,384L 128,448L 64,448zM 160,384L 224,384L 224,448L 160,448zM 256,384L 320,384L 320,448L 256,448zM 160,288L 224,288L 224,352L 160,352zM 256,288L 320,288L 320,352L 256,352zM 352,288L 416,288L 416,352L 352,352zM 64,288L 128,288L 128,352L 64,352zM 416,0l0,32 l-64,0 L 352,0 L 128,0 l0,32 L 64,32 L 64,0 L0,0 l0,512 l 480,0 L 480,0 L 416,0 z M 448,480L 32,480 L 32,128 l 416,0 L 448,480 z" ></path></svg>