<?xml version="1.0" encoding="utf-8"?> <!-- Generator: IcoMoon.io --> <!DOCTYPE svg PUBLIC "-//W3C//DTD SVG 1.1//EN" "http://www.w3.org/Graphics/SVG/1.1/DTD/svg11.dtd"> <svg width="512" height="512" viewBox="0 0 512 512" xmlns="http://www.w3.org/2000/svg" xmlns:xlink="http://www.w3.org/1999/xlink" fill="#505050"><path d="M 329.372,374.628L 224,269.255L 224,128L 288,128L 288,242.745L 374.628,329.372 zM 256,0C 114.615,0,0,114.615,0,256s 114.615,256, 256,256s 256-114.615, 256-256S 397.385,0, 256,0z M 256,448 c-106.039,0-192-85.961-192-192c0-106.039, 85.961-192, 192-192c 106.039,0, 192,85.961, 192,192C 448,362.039, 362.039,448, 256,448z" ></path></svg>