<?xml version="1.0" encoding="utf-8"?> <!-- Generator: IcoMoon.io --> <!DOCTYPE svg PUBLIC "-//W3C//DTD SVG 1.1//EN" "http://www.w3.org/Graphics/SVG/1.1/DTD/svg11.dtd"> <svg width="480" height="448" viewBox="0 0 480 448" xmlns="http://www.w3.org/2000/svg" xmlns:xlink="http://www.w3.org/1999/xlink" fill="#505050"><path d="M 480.00,288.00q0.00,39.75 -28.125,67.875t-67.875,28.125l-272.00,0.00 q-46.25,0.00 -79.125-32.875t-32.875-79.125q0.00-33.00 17.75-60.375t 46.75-40.875q-0.50-7.00 -0.50-10.75q0.00-53.00 37.50-90.50t 90.50-37.50q 39.50,0.00 71.625,22.00t 46.875,57.50q 17.50-15.50 41.50-15.50q 26.50,0.00 45.25,18.75t 18.75,45.25q0.00,18.75 -10.25,34.50q 32.25,7.50 53.25,33.625t 21.00,59.875z " ></path></svg>