<?xml version="1.0" encoding="utf-8"?> <!-- Generator: IcoMoon.io --> <!DOCTYPE svg PUBLIC "-//W3C//DTD SVG 1.1//EN" "http://www.w3.org/Graphics/SVG/1.1/DTD/svg11.dtd"> <svg width="512" height="512" viewBox="0 0 512 512" xmlns="http://www.w3.org/2000/svg" xmlns:xlink="http://www.w3.org/1999/xlink" fill="#505050"><path d="M 240,32C 107.452,32,0,139.452,0,272c0,132.549, 107.452,240, 240,240c 132.549,0, 240-107.451, 240-240 C 480,139.452, 372.549,32, 240,32z M 240,464c-106.039,0-192-85.961-192-192c0-106.039, 85.961-192, 192-192 c 106.039,0, 192,85.961, 192,192C 432,378.039, 346.039,464, 240,464zM 256,256l0-64 l 64,0 l0-32 l-64,0 l0-32 l-32,0 l0,32 l-64,0 l0,128 l 64,0 l0,64 l-64,0 l0,32 l 64,0 l0,32 l 32,0 l0-32 l 64,0 l 0.001,0 L 320,256L 256,256 z M 224,256l-32,0 l0-64 l 32,0 L 224,256 z M 288.001,352L 256,352 l0-64 l 32.001,0 L 288.001,352 z" ></path></svg>