<?xml version="1.0" encoding="utf-8"?> <!-- Generator: IcoMoon.io --> <!DOCTYPE svg PUBLIC "-//W3C//DTD SVG 1.1//EN" "http://www.w3.org/Graphics/SVG/1.1/DTD/svg11.dtd"> <svg width="448" height="448" viewBox="0 0 448 448" xmlns="http://www.w3.org/2000/svg" xmlns:xlink="http://www.w3.org/1999/xlink" fill="#505050"><path d="M 176.00,96.00q-38.25,0.00 -71.50,13.00t-52.875,35.25t-19.625,47.75q0.00,20.50 13.25,39.50t 37.25,33.00l 24.25,14.00l-8.75,21.00q 8.50-5.00 15.50-9.75l 11.00-7.75l 13.25,2.50q 19.50,3.50 38.25,3.50q 38.25,0.00 71.50-13.00t 52.875-35.25t 19.625-47.75t-19.625-47.75t-52.875-35.25t-71.50-13.00zM 176.00,64.00q 47.75,0.00 88.375,17.125t 64.125,46.625t 23.50,64.25t-23.50,64.25 t-64.125,46.625t-88.375,17.125q-21.50,0.00 -44.00-4.00q-31.00,22.00 -69.50,32.00q-9.00,2.25 -21.50,4.00l-0.75,0.00 q-2.75,0.00 -5.125-2.00t-2.875-5.25q-0.25-0.75 -0.25-1.625t 0.125-1.625t 0.50-1.50l 0.625-1.25t 0.875-1.375t 1.00-1.25t 1.125-1.25t 1.00-1.125q 1.25-1.50 5.75-6.25t 6.50-7.375t 5.625-7.25t 6.25-9.625t 5.125-11.00q-31.00-18.00 -48.75-44.25t-17.75-56.00q0.00-34.75 23.50-64.25t 64.125-46.625 t 88.375-17.125zM 381.50,356.25q 2.50,6.00 5.125,11.00t 6.25,9.625t 5.625,7.25t 6.50,7.375t 5.75,6.25q 0.25,0.25 1.00,1.125t 1.125,1.25t 1.00,1.25t 0.875,1.375l 0.625,1.25t 0.50,1.50t 0.125,1.625t-0.25,1.625q-0.75,3.50 -3.25,5.50t-5.50,1.75q-12.50-1.75 -21.50-4.00q-38.50-10.00 -69.50-32.00q-22.50,4.00 -44.00,4.00q-67.75,0.00 -118.00-33.00q 14.50,1.00 22.00,1.00q 40.25,0.00 77.25-11.25t 66.00-32.25 q 31.25-23.00 48.00-53.00t 16.75-63.50q0.00-19.25 -5.75-38.00q 32.25,17.75 51.00,44.50t 18.75,57.50q0.00,30.00 -17.75,56.125t-48.75,44.125z" ></path></svg>