<?xml version="1.0" encoding="utf-8"?> <!-- Generator: IcoMoon.io --> <!DOCTYPE svg PUBLIC "-//W3C//DTD SVG 1.1//EN" "http://www.w3.org/Graphics/SVG/1.1/DTD/svg11.dtd"> <svg width="416" height="448" viewBox="0 0 416 448" xmlns="http://www.w3.org/2000/svg" xmlns:xlink="http://www.w3.org/1999/xlink" fill="#505050"><path d="M 334.75,201.75q 4.25,10.25 -3.50,17.50l-112.00,112.00q-4.50,4.75 -11.25,4.75t-11.25-4.75l-112.00-112.00q-7.75-7.25 -3.50-17.50q 4.25-9.75 14.75-9.75l 64.00,0.00 l0.00-112.00 q0.00-6.50 4.75-11.25t 11.25-4.75l 64.00,0.00 q 6.50,0.00 11.25,4.75t 4.75,11.25l0.00,112.00 l 64.00,0.00 q 10.50,0.00 14.75,9.75zM 408.00,256.00q 3.50,0.00 5.75,2.25t 2.25,5.75l0.00,144.00 q0.00,3.50 -2.25,5.75t-5.75,2.25l-400.00,0.00 q-3.50,0.00 -5.75-2.25t-2.25-5.75l0.00-144.00 q0.00-3.50 2.25-5.75 t 5.75-2.25l 48.00,0.00 q 3.50,0.00 5.75,2.25t 2.25,5.75l0.00,88.00 l 288.00,0.00 l0.00-88.00 q0.00-3.50 2.25-5.75t 5.75-2.25l 48.00,0.00 z" ></path></svg>