<?xml version="1.0" encoding="utf-8"?> <!-- Generator: IcoMoon.io --> <!DOCTYPE svg PUBLIC "-//W3C//DTD SVG 1.1//EN" "http://www.w3.org/Graphics/SVG/1.1/DTD/svg11.dtd"> <svg width="448" height="448" viewBox="0 0 448 448" xmlns="http://www.w3.org/2000/svg" xmlns:xlink="http://www.w3.org/1999/xlink" fill="#505050"><path d="M 138.75,333.75l 19.50-35.25q-21.75-15.75 -34.00-39.75t-12.25-50.75q0.00-30.25 15.25-56.25q-57.25,29.25 -95.25,88.25q 41.75,64.50 106.75,93.75zM 236.00,144.00q0.00-5.00 -3.50-8.50t-8.50-3.50q-31.25,0.00 -53.625,22.375t-22.375,53.625q0.00,5.00 3.50,8.50t 8.50,3.50t 8.50-3.50t 3.50-8.50q0.00-21.50 15.25-36.75t 36.75-15.25q 5.00,0.00 8.50-3.50t 3.50-8.50zM 326.75,96.25q0.00,1.75 -0.25,2.25 q-26.25,47.00 -78.75,141.50t-79.00,141.75l-12.25,22.25q-2.50,4.00 -7.00,4.00q-3.00,0.00 -33.50-17.50q-4.00-2.50 -4.00-7.00q0.00-3.00 11.00-21.75q-35.75-16.25 -65.875-43.25t-52.125-61.25q-5.00-7.75 -5.00-17.25t 5.00-17.25q 38.25-58.75 95.00-92.75t 124.00-34.00q 22.25,0.00 45.00,4.25l 13.50-24.25q 2.50-4.00 7.00-4.00q 1.25,0.00 4.50,1.50t 7.75,3.875t 8.25,4.625t 7.875,4.625t 4.875,2.875 q 4.00,2.50 4.00,6.75zM 336.00,208.00q0.00,34.75 -19.75,63.375t-52.25,41.125l 70.00-125.50q 2.00,11.25 2.00,21.00zM 448.00,240.00q0.00,8.75 -5.00,17.25q-9.75,16.00 -27.25,36.25q-37.50,43.00 -86.875,66.75t-104.875,23.75l 18.50-33.00q 53.00-4.50 98.125-34.25t 75.375-76.75q-28.75-44.75 -70.50-73.50l 15.75-28.00q 23.75,16.00 45.625,38.25t 36.125,46.00q 5.00,8.50 5.00,17.25z " ></path></svg>