<?xml version="1.0" encoding="utf-8"?> <!-- Generator: IcoMoon.io --> <!DOCTYPE svg PUBLIC "-//W3C//DTD SVG 1.1//EN" "http://www.w3.org/Graphics/SVG/1.1/DTD/svg11.dtd"> <svg width="448" height="448" viewBox="0 0 448 448" xmlns="http://www.w3.org/2000/svg" xmlns:xlink="http://www.w3.org/1999/xlink" fill="#505050"><path d="M 416.00,240.00q-38.00-59.00 -95.25-88.25q 15.25,26.00 15.25,56.25q0.00,46.25 -32.875,79.125t-79.125,32.875t-79.125-32.875t-32.875-79.125q0.00-30.25 15.25-56.25q-57.25,29.25 -95.25,88.25q 33.25,51.25 83.375,81.625t 108.625,30.375t 108.625-30.375t 83.375-81.625zM 236.00,144.00q0.00-5.00 -3.50-8.50t-8.50-3.50q-31.25,0.00 -53.625,22.375 t-22.375,53.625q0.00,5.00 3.50,8.50t 8.50,3.50t 8.50-3.50t 3.50-8.50q0.00-21.50 15.25-36.75t 36.75-15.25q 5.00,0.00 8.50-3.50t 3.50-8.50zM 448.00,240.00q0.00,8.50 -5.00,17.25q-35.00,57.50 -94.125,92.125t-124.875,34.625t-124.875-34.75t-94.125-92.00q-5.00-8.75 -5.00-17.25t 5.00-17.25q 35.00-57.25 94.125-92.00t 124.875-34.75t 124.875,34.75t 94.125,92.00q 5.00,8.75 5.00,17.25z" ></path></svg>