<?xml version="1.0" encoding="utf-8"?> <!-- Generator: IcoMoon.io --> <!DOCTYPE svg PUBLIC "-//W3C//DTD SVG 1.1//EN" "http://www.w3.org/Graphics/SVG/1.1/DTD/svg11.dtd"> <svg width="512" height="512" viewBox="0 0 512 512" xmlns="http://www.w3.org/2000/svg" xmlns:xlink="http://www.w3.org/1999/xlink" fill="#505050"><path d="M 426.672,0L 85.342,0 C 38.406,0,0,38.407,0,85.344l0,341.313 C0,473.626, 38.406,512, 85.342,512l 341.33-0.001 c 46.938,0, 85.328-38.373, 85.328-85.344L 512,85.344 C 512,38.407, 473.609,0, 426.672,0z M 435.296,256L 352,256 l0,224 l-96,0 L 256,256 l-46.263,0 l0-73.282 L 256,182.718 l0-47.593 C 256,70.454, 283.896,32, 359.935,32l 87.622,0 l0,79.285 l-71.565,0 c-21.241-0.035-23.876,11.076-23.876,31.756L 352,182.718l 96,0 L 435.296,256z" ></path></svg>