<?xml version="1.0" encoding="utf-8"?> <!-- Generator: IcoMoon.io --> <!DOCTYPE svg PUBLIC "-//W3C//DTD SVG 1.1//EN" "http://www.w3.org/Graphics/SVG/1.1/DTD/svg11.dtd"> <svg width="448" height="448" viewBox="0 0 448 448" xmlns="http://www.w3.org/2000/svg" xmlns:xlink="http://www.w3.org/1999/xlink" fill="#505050"><path d="M 80.00,64.00q0.00,18.00 -16.00,27.50l0.00,316.50 q0.00,3.25 -2.375,5.625t-5.625,2.375l-16.00,0.00 q-3.25,0.00 -5.625-2.375t-2.375-5.625l0.00-316.50 q-16.00-9.50 -16.00-27.50q0.00-13.25 9.375-22.625t 22.625-9.375t 22.625,9.375t 9.375,22.625zM 448.00,80.00l0.00,190.75 q0.00,6.25 -3.125,9.625t-9.875,6.875q-53.75,29.00 -92.25,29.00q-15.25,0.00 -30.875-5.50t-27.125-12.00 t-28.875-12.00t-35.625-5.50q-48.00,0.00 -116.00,36.50q-4.25,2.25 -8.25,2.25q-6.50,0.00 -11.25-4.75t-4.75-11.25l0.00-185.50 q0.00-8.00 7.75-13.75q 5.25-3.50 19.75-10.75q 59.00-30.00 105.25-30.00q 26.75,0.00 50.00,7.25t 54.75,22.00q 9.50,4.75 22.00,4.75q 13.50,0.00 29.375-5.25t 27.50-11.75t 22.00-11.75t 13.625-5.25q 6.50,0.00 11.25,4.75t 4.75,11.25z" ></path></svg>