<?xml version="1.0" encoding="utf-8"?> <!-- Generator: IcoMoon.io --> <!DOCTYPE svg PUBLIC "-//W3C//DTD SVG 1.1//EN" "http://www.w3.org/Graphics/SVG/1.1/DTD/svg11.dtd"> <svg width="512" height="512" viewBox="0 0 512 512" xmlns="http://www.w3.org/2000/svg" xmlns:xlink="http://www.w3.org/1999/xlink" fill="#505050"><path d="M 464,288 C 500.5,288 480,384 448,384 C 464,384 448,464 416,464 C 416,496 384,512 352,512 C 216.824,512 264.368,478.175 128,464 L 128,208 C 248.461,171.866 368,81.288 368,0 C 394.5,0 464,32 368,192 C 368,192 448,192 464,192 C 512,192 496,288 464,288 ZM 96,208 L 96,464 L 128,464 L 128,480 L 64,480 C 46.4,480 32,458.4 32,432 L 32,240 C 32,213.6 46.4,192 64,192 L 128,192 L 128,208 L 96,208 Z" ></path></svg>