<?xml version="1.0" encoding="utf-8"?> <!-- Generator: IcoMoon.io --> <!DOCTYPE svg PUBLIC "-//W3C//DTD SVG 1.1//EN" "http://www.w3.org/Graphics/SVG/1.1/DTD/svg11.dtd"> <svg width="512" height="512" viewBox="0 0 512 512" xmlns="http://www.w3.org/2000/svg" xmlns:xlink="http://www.w3.org/1999/xlink" fill="#505050"><path d="M0,512l0-48 c0-71.744, 90.384-98.864, 209.584-109.792c-26.176-16.224-46.72-61.824-57.424-98.24 C 152.112,255.968, 152.064,256, 152,256C 150.912,256, 128,227.344, 128,192c0-31.008-2.208-56.864, 16.112-62.72C 144.096,128.848, 144,128.432, 144,128 c0-39.312, 20.336-73.76, 50.992-93.744C 202.912,14.496, 227.056,0, 256,0s 53.088,14.496, 61.008,34.256C 347.664,54.24, 368,88.688, 368,128 c0,0.432-0.096,0.848-0.112,1.28C 386.208,135.136, 384,160.992, 384,192c0,35.344-25.408,64-24,64c-0.064,0-0.112-0.032-0.16-0.032 c-10.704,36.4-31.248,82.016-57.424,98.24C 421.616,365.136, 512,391.248, 512,464l0,48 L0,512 z" ></path></svg>