<?xml version="1.0" encoding="utf-8"?> <!-- Generator: IcoMoon.io --> <!DOCTYPE svg PUBLIC "-//W3C//DTD SVG 1.1//EN" "http://www.w3.org/Graphics/SVG/1.1/DTD/svg11.dtd"> <svg width="512" height="512" viewBox="0 0 512 512" xmlns="http://www.w3.org/2000/svg" xmlns:xlink="http://www.w3.org/1999/xlink" fill="#505050"><path d="M 512,179.078 C 512,222.259 493.391,261.093 463.755,288 L 464,288 L 304,448 C 288,464 272,480 256,480 C 240,480 224,464 208,448 L 48,288 L 48.245,288 C 18.609,261.093 0,222.259 0,179.078 C 0,97.849 65.849,32 147.078,32 C 190.259,32 229.093,50.609 256,80.245 C 282.907,50.609 321.741,32 364.922,32 C 446.15,32 512,97.849 512,179.078 Z" ></path></svg>