<?xml version="1.0" encoding="utf-8"?> <!-- Generator: IcoMoon.io --> <!DOCTYPE svg PUBLIC "-//W3C//DTD SVG 1.1//EN" "http://www.w3.org/Graphics/SVG/1.1/DTD/svg11.dtd"> <svg width="512" height="512" viewBox="0 0 512 512" xmlns="http://www.w3.org/2000/svg" xmlns:xlink="http://www.w3.org/1999/xlink" fill="#505050"><path d="M 159.094,278.646l-1.042,0 l-33.521-51.188l-40.938-60.437l-31.75,0 l0,176.395 l 35.062,0 L 86.905,232.312 l 1.521,0 l 29.104,44.542l 44.688,66.562l 31.938,0 L 194.156,167.021 l-35.062,0 L 159.094,278.646 z M 206.469,354.166l 25.834,0 l 64.791-196.332l-26.125,0 L 206.469,354.166z M 398.719,167.021l-35.833,0 l-61.979,176.395l 37.375,0 l 11.521-36.375l 61.459,0 l 10.749,36.375l 38.146,0 L 398.719,167.021z M 359.281,277.625 l 7.146-23.292l 13.604-45.832l 1,0 l 13.854,46.604l 6.896,22.521L 359.281,277.626 z" ></path></svg>