<?xml version="1.0" encoding="utf-8"?> <!-- Generator: IcoMoon.io --> <!DOCTYPE svg PUBLIC "-//W3C//DTD SVG 1.1//EN" "http://www.w3.org/Graphics/SVG/1.1/DTD/svg11.dtd"> <svg width="512" height="512" viewBox="0 0 512 512" xmlns="http://www.w3.org/2000/svg" xmlns:xlink="http://www.w3.org/1999/xlink" fill="#505050"><path d="M 496,192L 320,192 L 320,16 c0-8.832-7.152-16-16-16l-96,0 c-8.848,0-16,7.168-16,16l0,176 L 16,192 c-8.848,0-16,7.168-16,16l0,96 c0,8.848, 7.152,16, 16,16l 176,0 l0,176 c0,8.848, 7.152,16, 16,16l 96,0 c 8.848,0, 16-7.152, 16-16L 320,320 l 176,0 c 8.848,0, 16-7.152, 16-16l0-96 C 512,199.168, 504.848,192, 496,192z" ></path></svg>