<?xml version="1.0" encoding="utf-8"?> <!-- Generator: IcoMoon.io --> <!DOCTYPE svg PUBLIC "-//W3C//DTD SVG 1.1//EN" "http://www.w3.org/Graphics/SVG/1.1/DTD/svg11.dtd"> <svg width="512" height="512" viewBox="0 0 512 512" xmlns="http://www.w3.org/2000/svg" xmlns:xlink="http://www.w3.org/1999/xlink" fill="#505050"><path d="M 207.216,447.632c-0.4,0.4-0.816,0.816-1.2,1.216 c-40.128,38.384-103.952,39.136-142.656,1.536c-41.056-38.64-41.872-94.608, 0.704-137.664c 0.336-0.336, 0.608-0.688, 0.944-1.024 c 0.4-0.368, 0.784-0.768, 1.168-1.136l 264.32-256.864l0,0.112 l 0.064-0.208l 2.096-2.048c 24.416-23.232, 63.136-23.648, 86.624-0.816 c 14.128,20.128, 23.024,60.624-0.784,84.176l-2.192,2.144l-25.008,24.272l-22.944,22.32L 174.768,371.728l-0.096-0.096l-22.336,21.696 l-0.608-0.752l-0.56,0.624l-1.104,1.216c-0.096,0.064-0.208,0.128-0.288,0.224c-8.928,8.064-22.704,8.128-31.136-0.064 c-8.352-8.128-8.336-20.032-0.016-28.896c 0.272-0.256, 0.432-0.56, 0.704-0.816l 24.224-23.552l 177.36-172.336L 296.64,145.44L 119.28,317.808 l-21.536,23.504l0,0.032 c-0.064,0.064-0.128,0.096-0.208,0.192c-0.192,0.192-0.352,0.368-0.544,0.576 c-22.128,22.096-25.184,54.208-3.36,75.44c 21.84,21.2, 57.632,19.52, 80.352-2l 0.032,0.032l 0.448-0.464 c 0.048-0.032, 0.096-0.064, 0.128-0.096c 0.048-0.032, 0.080-0.096, 0.112-0.128l 240.832-230.016l 24.976-24.304l 2.224-2.128l-0.032-0.032 c 37.696-37.168, 19.792-106.784, 1.568-131.968c-37.088-36.032-98.144-35.152-136.368,2.016c-0.56,0.528-1.024,1.12-1.568,1.68l-0.064-0.048 L 41.92,286.992l 0.032,0.032c-0.208,0.224-0.432,0.368-0.656,0.592c-0.368,0.336-0.704,0.784-1.072,1.152l-0.384,0.368l 0.016,0.032 c-52.432,52.512-53.296,135.088-1.472,185.504c 52.336,50.864, 138.528,49.584, 192.48-2.848c 0.224-0.224, 0.384-0.432, 0.608-0.656l 0.064,0.064 L 512,198.672l-24.256-23.568L 207.216,447.632z" ></path></svg>