<?xml version="1.0" encoding="utf-8"?> <!-- Generator: IcoMoon.io --> <!DOCTYPE svg PUBLIC "-//W3C//DTD SVG 1.1//EN" "http://www.w3.org/Graphics/SVG/1.1/DTD/svg11.dtd"> <svg width="512" height="512" viewBox="0 0 512 512" xmlns="http://www.w3.org/2000/svg" xmlns:xlink="http://www.w3.org/1999/xlink" fill="#505050"><path d="M 48,224 C 11.5,224 32,128 64,128 C 48,128 64,48 96,48 C 96,16 128,0 160,0 C 295.176,0 247.632,33.825 384,48 L 384,304 C 263.539,340.134 144,430.712 144,512 C 117.5,512 48,480 144,320 C 144,320 64,320 48,320 C 0,320 16,224 48,224 ZM 416,304 L 416,48 L 384,48 L 384,32 L 448,32 C 465.6,32 480,53.6 480,80 L 480,272 C 480,298.4 465.6,320 448,320 L 384,320 L 384,304 L 416,304 Z" ></path></svg>