<?xml version="1.0" encoding="utf-8"?> <!-- Generator: IcoMoon.io --> <!DOCTYPE svg PUBLIC "-//W3C//DTD SVG 1.1//EN" "http://www.w3.org/Graphics/SVG/1.1/DTD/svg11.dtd"> <svg width="512" height="512" viewBox="0 0 512 512" xmlns="http://www.w3.org/2000/svg" xmlns:xlink="http://www.w3.org/1999/xlink" fill="#505050"><path d="M 480,64L 32,64 C 14.336,64,0,78.336,0,96l0,320 c0,17.664, 14.336,32, 32,32l 448,0 c 17.664,0, 32-14.336, 32-32L 512,96 C 512,78.336, 497.664,64, 480,64z M 48,96l 416,0 c 8.848,0, 16,7.152, 16,16l0,48 L 32,160 L 32,112 C 32,103.152, 39.152,96, 48,96z M 464,416L 48,416 c-8.848,0-16-7.152-16-16l0-144 l 448,0 l0,144 C 480,408.848, 472.848,416, 464,416z" ></path></svg>