<?xml version="1.0" encoding="utf-8"?> <!-- Generator: IcoMoon.io --> <!DOCTYPE svg PUBLIC "-//W3C//DTD SVG 1.1//EN" "http://www.w3.org/Graphics/SVG/1.1/DTD/svg11.dtd"> <svg width="512" height="512" viewBox="0 0 512 512" xmlns="http://www.w3.org/2000/svg" xmlns:xlink="http://www.w3.org/1999/xlink" fill="#505050"><path d="M 432,352c-22.58,0-42.96,9.369-57.506,24.415L 158.992,268.664C 159.649,264.538, 160,260.311, 160,256 s-0.351-8.538-1.008-12.663l 215.502-107.751C 389.040,150.631, 409.42,160, 432,160c 44.183,0, 80-35.817, 80-80S 476.183,0, 432,0 s-80,35.817-80,80c0,4.311, 0.352,8.538, 1.008,12.663L 137.506,200.415C 122.96,185.37, 102.58,176, 80,176c-44.183,0-80,35.818-80,80 c0,44.184, 35.817,80, 80,80c 22.58,0, 42.96-9.369, 57.506-24.414l 215.502,107.751C 352.352,423.462, 352,427.689, 352,432 c0,44.184, 35.817,80, 80,80s 80-35.816, 80-80C 512,387.818, 476.183,352, 432,352z" ></path></svg>