<?xml version="1.0" encoding="utf-8"?> <!-- Generator: IcoMoon.io --> <!DOCTYPE svg PUBLIC "-//W3C//DTD SVG 1.1//EN" "http://www.w3.org/Graphics/SVG/1.1/DTD/svg11.dtd"> <svg width="512" height="512" viewBox="0 0 512 512" xmlns="http://www.w3.org/2000/svg" xmlns:xlink="http://www.w3.org/1999/xlink" fill="#505050"><path d="M 224,320l-48,0 l0-0.976 C 170.72,319.568, 165.424,320, 160,320C 71.648,320,0,248.368,0,160 C0,71.632, 71.648,0, 160,0s 160,71.632, 160,160l0,64 l 16,0 l0,16 l 16,0 l0,16 l 16,0 l0,16 l 16,0 l0,16 l 16,0 l0,16 l 16,0 l0,16 l 16,0 l0,16 l 16,0 l0,16 l 16,0 l0,16 l 16,0 l0,16 l 16,0 l0,16 l 16,0 l0,32 l0,64 c0,8.848-7.152,16-16,16l-64,0 c-8.848,0-16-7.152-16-16l0-64 l-16,0 l-16,0 l-48,0 c-8.832,0-16-7.152-16-16l0-64 l-64,0 l-16,0 M 128,64C 92.656,64, 64,92.656, 64,128s 28.656,64, 64,64s 64-28.656, 64-64S 163.344,64, 128,64z" ></path></svg>