<?xml version="1.0" encoding="utf-8"?> <!-- Generator: IcoMoon.io --> <!DOCTYPE svg PUBLIC "-//W3C//DTD SVG 1.1//EN" "http://www.w3.org/Graphics/SVG/1.1/DTD/svg11.dtd"> <svg width="512" height="512" viewBox="0 0 512 512" xmlns="http://www.w3.org/2000/svg" xmlns:xlink="http://www.w3.org/1999/xlink" fill="#505050"><path d="M 256,0C 114.615,0,0,114.615,0,256s 114.615,256, 256,256s 256-114.615, 256-256S 397.385,0, 256,0z M 256,464 c-114.875,0-208-93.125-208-208S 141.125,48, 256,48s 208,93.125, 208,208S 370.875,464, 256,464zM 224,128L 288,128L 288,192L 224,192zM 320,384L 192,384L 192,352L 224,352L 224,256L 192,256L 192,224L 288,224L 288,352L 320,352 z" ></path></svg>