<?xml version="1.0" encoding="utf-8"?> <!-- Generator: IcoMoon.io --> <!DOCTYPE svg PUBLIC "-//W3C//DTD SVG 1.1//EN" "http://www.w3.org/Graphics/SVG/1.1/DTD/svg11.dtd"> <svg width="256" height="448" viewBox="0 0 256 448" xmlns="http://www.w3.org/2000/svg" xmlns:xlink="http://www.w3.org/1999/xlink" fill="#505050"><path d="M 184.00,144.00q0.00,3.25 -2.375,5.625t-5.625,2.375t-5.625-2.375t-2.375-5.625q0.00-11.50 -13.50-17.75t-26.50-6.25q-3.25,0.00 -5.625-2.375t-2.375-5.625t 2.375-5.625t 5.625-2.375q 12.50,0.00 24.875,4.00t 21.75,13.50t 9.375,22.50zM 224.00,144.00q0.00-18.00 -8.625-33.50t-22.50-25.375t-30.75-15.50t-34.125-5.625t-34.125,5.625t-30.75,15.50t-22.50,25.375t-8.625,33.50 q0.00,25.25 17.00,45.00q 2.50,2.75 7.625,8.25t 7.625,8.25q 32.00,38.25 35.25,74.50l 57.00,0.00 q 3.25-36.25 35.25-74.50q 2.50-2.75 7.625-8.25t 7.625-8.25q 17.00-19.75 17.00-45.00zM 256.00,144.00q0.00,38.75 -25.75,67.00q-11.25,12.25 -18.625,21.75t-14.875,23.875t-8.50,26.875q 11.75,7.00 11.75,20.50q0.00,9.25 -6.25,16.00q 6.25,6.75 6.25,16.00q0.00,13.00 -11.25,20.25q 3.25,5.75 3.25,11.75 q0.00,11.50 -7.875,17.75t-19.375,6.25q-5.00,11.00 -15.00,17.50t-21.75,6.50t-21.75-6.50t-15.00-17.50q-11.50,0.00 -19.375-6.25t-7.875-17.75q0.00-6.00 3.25-11.75q-11.25-7.25 -11.25-20.25q0.00-9.25 6.25-16.00q-6.25-6.75 -6.25-16.00q0.00-13.50 11.75-20.50q-1.00-12.50 -8.50-26.875t-14.875-23.875t-18.625-21.75q-25.75-28.25 -25.75-67.00q0.00-24.75 11.125-46.125t 29.25-35.50t 41.00-22.25t 46.625-8.125 t 46.625,8.125t 41.00,22.25t 29.25,35.50t 11.125,46.125z" ></path></svg>