<?xml version="1.0" encoding="utf-8"?> <!-- Generator: IcoMoon.io --> <!DOCTYPE svg PUBLIC "-//W3C//DTD SVG 1.1//EN" "http://www.w3.org/Graphics/SVG/1.1/DTD/svg11.dtd"> <svg width="320" height="512" viewBox="0 0 320 512" xmlns="http://www.w3.org/2000/svg" xmlns:xlink="http://www.w3.org/1999/xlink" fill="#505050"><path d="M 160,64.128c 52.976,0, 96,43.184, 96,96.256c0,30.32-13.808,58.192-37.968,76.368c-36.128,27.312-50.72,57.504-55.744,82.88 L 157.712,319.632 c-5.008-25.376-19.648-55.568-55.744-82.88c-24.128-18.192-38-46.064-38-76.368C 63.968,107.312, 107.024,64.128, 160,64.128 M 160,0 C 71.632,0,0,71.808,0,160.368C0,212.88, 24.72,258.752, 63.504,288c 17.84,13.504, 32.56,30.88, 32.56,54.88l0,40.88 l 127.904,0 L 223.968,342.88 c0-24, 14.72-41.376, 32.528-54.88C 295.312,258.752, 320,212.88, 320,160.368C 320,71.808, 248.368,0, 160,0L 160,0zM 96,448L 224,448L 224,512L 96,512z" ></path></svg>