<?xml version="1.0" encoding="utf-8"?> <!-- Generator: IcoMoon.io --> <!DOCTYPE svg PUBLIC "-//W3C//DTD SVG 1.1//EN" "http://www.w3.org/Graphics/SVG/1.1/DTD/svg11.dtd"> <svg width="512" height="512" viewBox="0 0 512 512" xmlns="http://www.w3.org/2000/svg" xmlns:xlink="http://www.w3.org/1999/xlink" fill="#505050"><path d="M 426,0L 86,0 C 38.7,0,0,38.7,0,86l0,340 c0,47.3, 38.7,86, 86,86l 340,0 c 47.3,0, 86-38.7, 86-86L 512,86 C 512,38.7, 473.3,0, 426,0z M 192,416l-64,0 L 128,192 l 64,0 L 192,416 z M 160,160c-17.673,0-32-14.327-32-32s 14.327-32, 32-32s 32,14.327, 32,32S 177.673,160, 160,160z M 416,416l-64,0 L 352,288 c0-17.673-14.327-32-32-32s-32,14.327-32,32l0,128 l-64,0 L 224,192 l 64,0 l0,39.736 C 301.199,213.604, 321.376,192, 344,192c 39.765,0, 72,35.817, 72,80 L 416,416 z" ></path></svg>