<?xml version="1.0" encoding="utf-8"?> <!-- Generator: IcoMoon.io --> <!DOCTYPE svg PUBLIC "-//W3C//DTD SVG 1.1//EN" "http://www.w3.org/Graphics/SVG/1.1/DTD/svg11.dtd"> <svg width="512" height="512" viewBox="0 0 512 512" xmlns="http://www.w3.org/2000/svg" xmlns:xlink="http://www.w3.org/1999/xlink" fill="#505050"><path d="M 256,0C 167.634,0, 96,71.634, 96,160c0,160, 160,352, 160,352s 160-192, 160-352C 416,71.634, 344.365,0, 256,0z M 256,258 c-54.124,0-98-43.876-98-98s 43.876-98, 98-98s 98,43.876, 98,98S 310.124,258, 256,258zM 194,160A62,62 2160 1 1 318,160A62,62 2160 1 1 194,160z" ></path></svg>