<?xml version="1.0" encoding="utf-8"?> <!-- Generator: IcoMoon.io --> <!DOCTYPE svg PUBLIC "-//W3C//DTD SVG 1.1//EN" "http://www.w3.org/Graphics/SVG/1.1/DTD/svg11.dtd"> <svg width="512" height="512" viewBox="0 0 512 512" xmlns="http://www.w3.org/2000/svg" xmlns:xlink="http://www.w3.org/1999/xlink" fill="#505050"><path d="M 416,224l-32,0 l0-96 C 384,57.308, 326.692,0, 256,0c-70.692,0-128,57.308-128,128l0,96 L 96,224 c-17.6,0-32,14.4-32,32l0,224 c0,17.6, 14.4,32, 32,32l 320,0 c 17.6,0, 32-14.4, 32-32L 448,256 C 448,238.4, 433.6,224, 416,224z M 256,416c-17.673,0-32-14.327-32-32 s 14.327-32, 32-32s 32,14.327, 32,32S 273.673,416, 256,416z M 320,224L 192,224 l0-96 c0-35.29, 28.71-64, 64-64s 64,28.71, 64,64L 320,224 z" ></path></svg>