<?xml version="1.0" encoding="utf-8"?> <!-- Generator: IcoMoon.io --> <!DOCTYPE svg PUBLIC "-//W3C//DTD SVG 1.1//EN" "http://www.w3.org/Graphics/SVG/1.1/DTD/svg11.dtd"> <svg width="512" height="512" viewBox="0 0 512 512" xmlns="http://www.w3.org/2000/svg" xmlns:xlink="http://www.w3.org/1999/xlink" fill="#505050"><path d="M 464,512L 48,512 c-8.832,0-16-7.152-16-16L 32,240 c0-8.848, 7.168-16, 16-16l 48,0 l0-64 C 96,71.632, 167.632,0, 256,0 s 160,71.632, 160,160l0,64 l 48,0 c 8.848,0, 16,7.152, 16,16l0,256 C 480,504.848, 472.848,512, 464,512z M 352,152C 352,103.392, 309.008,64, 256,64s-96,39.392-96,88L 160,224 l 192,0 L 352,152 z" ></path></svg>