<?xml version="1.0" encoding="utf-8"?> <!-- Generator: IcoMoon.io --> <!DOCTYPE svg PUBLIC "-//W3C//DTD SVG 1.1//EN" "http://www.w3.org/Graphics/SVG/1.1/DTD/svg11.dtd"> <svg width="512" height="512" viewBox="0 0 512 512" xmlns="http://www.w3.org/2000/svg" xmlns:xlink="http://www.w3.org/1999/xlink" fill="#505050"><path d="M 256,48 C 200.441,48 148.208,69.636 108.922,108.922 C 69.636,148.208 48,200.441 48,256 C 48,311.559 69.636,363.792 108.922,403.078 C 148.208,442.364 200.441,464 256,464 C 311.559,464 363.792,442.364 403.078,403.078 C 442.364,363.792 464,311.559 464,256 C 464,200.441 442.364,148.208 403.078,108.922 C 363.792,69.636 311.559,48 256,48 Z M 256,0 L 256,0 C 397.385,0 512,114.615 512,256 C 512,397.385 397.385,512 256,512 C 114.615,512 0,397.385 0,256 C 0,114.615 114.615,0 256,0 ZM 224,352L 288,352L 288,416L 224,416zM 224,96L 288,96L 288,288L 224,288z" ></path></svg>