<?xml version="1.0" encoding="utf-8"?> <!-- Generator: IcoMoon.io --> <!DOCTYPE svg PUBLIC "-//W3C//DTD SVG 1.1//EN" "http://www.w3.org/Graphics/SVG/1.1/DTD/svg11.dtd"> <svg width="512" height="512" viewBox="0 0 512 512" xmlns="http://www.w3.org/2000/svg" xmlns:xlink="http://www.w3.org/1999/xlink" fill="#505050"><path d="M 352,448 L 480,448 L 512,384 L 512,512 L 320,512 L 320,404.893 C 385.556,376.651 432,306.312 432,224 C 432,116.784 353.201,32.867 256,32.867 C 158.797,32.867 80,116.783 80,224 C 80,306.312 126.443,376.651 192,404.893 L 192,512 L 0,512 L 0,384 L 32,448 L 160,448 L 160,431.705 C 66.185,398.475 0,318.004 0,224 C 0,100.288 114.615,0 256,0 C 397.385,0 512,100.288 512,224 C 512,318.004 445.815,398.475 352,431.705 L 352,448 Z" ></path></svg>