<?xml version="1.0" encoding="utf-8"?> <!-- Generator: IcoMoon.io --> <!DOCTYPE svg PUBLIC "-//W3C//DTD SVG 1.1//EN" "http://www.w3.org/Graphics/SVG/1.1/DTD/svg11.dtd"> <svg width="352" height="448" viewBox="0 0 352 448" xmlns="http://www.w3.org/2000/svg" xmlns:xlink="http://www.w3.org/1999/xlink" fill="#505050"><path d="M 351.00,346.25q0.00,29.25 -19.75,49.00t-49.00,19.75q-33.75,0.00 -58.75-25.00l-194.25-194.00q-28.25-28.75 -28.25-67.75q0.00-39.75 27.50-67.50t 67.25-27.75q 39.50,0.00 68.25,28.25l 151.25,151.50q 2.50,2.50 2.50,5.50q0.00,4.00 -7.625,11.625t-11.625,7.625q-3.25,0.00 -5.75-2.50l-151.50-151.75q-19.75-19.25 -45.25-19.25q-26.50,0.00 -44.75,18.75t-18.25,45.25q0.00,26.25 19.00,45.25 l 194.00,194.25q 15.75,15.75 36.25,15.75q 16.00,0.00 26.50-10.50t 10.50-26.50q0.00-20.50 -15.75-36.25l-145.25-145.25q-6.50-6.00 -15.00-6.00q-7.25,0.00 -12.00,4.75t-4.75,12.00q0.00,8.00 6.25,14.75l 102.50,102.50q 2.50,2.50 2.50,5.50q0.00,4.00 -7.75,11.75t-11.75,7.75q-3.00,0.00 -5.50-2.50l-102.50-102.50q-15.75-15.25 -15.75-37.25q0.00-20.50 14.25-34.75t 34.75-14.25q 22.00,0.00 37.25,15.75l 145.25,145.25q 25.00,24.50 25.00,58.75 z" ></path></svg>