<?xml version="1.0" encoding="utf-8"?> <!-- Generator: IcoMoon.io --> <!DOCTYPE svg PUBLIC "-//W3C//DTD SVG 1.1//EN" "http://www.w3.org/Graphics/SVG/1.1/DTD/svg11.dtd"> <svg width="512" height="512" viewBox="0 0 512 512" xmlns="http://www.w3.org/2000/svg" xmlns:xlink="http://www.w3.org/1999/xlink" fill="#505050"><path d="M 490.594,80.054C 418.778,69.729, 339.428,64, 256.001,64c-83.43,0-162.778,5.729-234.597,16.054 C 7.639,133.917,0,193.429,0,256c0,62.57, 7.639,122.083, 21.404,175.945C 93.223,442.271, 172.572,448, 256.001,448 c 83.427,0, 162.776-5.729, 234.593-16.055C 504.36,378.083, 512,318.57, 512,256C 512,193.429, 504.36,133.917, 490.594,80.054z M 192.001,352L 192.001,160 l 160,96L 192.001,352z" ></path></svg>