<?xml version="1.0" encoding="utf-8"?> <!-- Generator: IcoMoon.io --> <!DOCTYPE svg PUBLIC "-//W3C//DTD SVG 1.1//EN" "http://www.w3.org/Graphics/SVG/1.1/DTD/svg11.dtd"> <svg width="512" height="512" viewBox="0 0 512 512" xmlns="http://www.w3.org/2000/svg" xmlns:xlink="http://www.w3.org/1999/xlink" fill="#505050"><path d="M 112.5,224 C 174.356,224 224.5,274.145 224.5,336 C 224.5,397.856 174.356,448 112.5,448 C 50.644,448 0.5,397.856 0.5,336 L 0,320 C 0,196.288 100.288,96 224,96 L 224,160 C 181.263,160 141.083,176.643 110.863,206.863 C 105.046,212.681 99.737,218.871 94.948,225.373 C 100.667,224.473 106.528,224 112.5,224 ZM 400.5,224 C 462.355,224 512.5,274.145 512.5,336 C 512.5,397.856 462.355,448 400.5,448 C 338.645,448 288.5,397.856 288.5,336 L 288,320 C 288,196.288 388.288,96 512,96 L 512,160 C 469.263,160 429.083,176.643 398.863,206.863 C 393.045,212.681 387.736,218.871 382.947,225.373 C 388.667,224.473 394.527,224 400.5,224 Z" ></path></svg>