<?xml version="1.0" encoding="utf-8"?> <!-- Generator: IcoMoon.io --> <!DOCTYPE svg PUBLIC "-//W3C//DTD SVG 1.1//EN" "http://www.w3.org/Graphics/SVG/1.1/DTD/svg11.dtd"> <svg width="512" height="512" viewBox="0 0 512 512" xmlns="http://www.w3.org/2000/svg" xmlns:xlink="http://www.w3.org/1999/xlink" fill="#505050"><path d="M 496.131,435.698L 374.855,332.551c-12.537-11.283-25.945-16.463-36.776-15.963C 366.707,283.054, 384,239.549, 384,192 C 384,85.961, 298.039,0, 192,0C 85.962,0,0,85.961,0,192c0,106.039, 85.961,192, 192,192c 47.549,0, 91.054-17.293, 124.588-45.922 c-0.5,10.831, 4.68,24.239, 15.963,36.776l 103.147,121.276c 17.661,19.623, 46.511,21.277, 64.11,3.678S 515.754,453.359, 496.131,435.698z M 192,320c-70.692,0-128-57.308-128-128S 121.308,64, 192,64s 128,57.308, 128,128S 262.693,320, 192,320z" ></path></svg>