<?xml version="1.0" encoding="utf-8"?> <!-- Generator: IcoMoon.io --> <!DOCTYPE svg PUBLIC "-//W3C//DTD SVG 1.1//EN" "http://www.w3.org/Graphics/SVG/1.1/DTD/svg11.dtd"> <svg width="392" height="448" viewBox="0 0 392 448" xmlns="http://www.w3.org/2000/svg" xmlns:xlink="http://www.w3.org/1999/xlink" fill="#505050"><path d="M 124.00,336.00q0.00,15.00 -10.625,25.50t-25.375,10.50q-15.00,0.00 -25.50-10.50t-10.50-25.50t 10.50-25.50t 25.50-10.50q 14.75,0.00 25.375,10.50t 10.625,25.50zM 232.00,384.00q0.00,13.25 -9.375,22.625t-22.625,9.375t-22.625-9.375t-9.375-22.625t 9.375-22.625t 22.625-9.375t 22.625,9.375t 9.375,22.625zM 80.00,224.00q0.00,16.50 -11.75,28.25t-28.25,11.75t-28.25-11.75t-11.75-28.25 t 11.75-28.25t 28.25-11.75t 28.25,11.75t 11.75,28.25zM 340.00,336.00q0.00,11.50 -8.25,19.75t-19.75,8.25t-19.75-8.25t-8.25-19.75t 8.25-19.75t 19.75-8.25t 19.75,8.25t 8.25,19.75zM 132.00,112.00q0.00,18.25 -12.875,31.125t-31.125,12.875t-31.125-12.875t-12.875-31.125t 12.875-31.125t 31.125-12.875t 31.125,12.875t 12.875,31.125zM 248.00,64.00q0.00,20.00 -14.00,34.00t-34.00,14.00 t-34.00-14.00t-14.00-34.00t 14.00-34.00t 34.00-14.00t 34.00,14.00t 14.00,34.00zM 384.00,224.00q0.00,10.00 -7.00,17.00t-17.00,7.00t-17.00-7.00t-7.00-17.00t 7.00-17.00t 17.00-7.00t 17.00,7.00t 7.00,17.00zM 332.00,112.00q0.00,8.25 -5.875,14.125t-14.125,5.875t-14.125-5.875t-5.875-14.125t 5.875-14.125t 14.125-5.875t 14.125,5.875t 5.875,14.125z" ></path></svg>