<?xml version="1.0" encoding="utf-8"?> <!-- Generator: IcoMoon.io --> <!DOCTYPE svg PUBLIC "-//W3C//DTD SVG 1.1//EN" "http://www.w3.org/Graphics/SVG/1.1/DTD/svg11.dtd"> <svg width="416" height="448" viewBox="0 0 416 448" xmlns="http://www.w3.org/2000/svg" xmlns:xlink="http://www.w3.org/1999/xlink" fill="#505050"><path d="M 416.00,161.75q0.00,5.50 -6.50,12.00l-90.75,88.50l 21.50,125.00q 0.25,1.75 0.25,5.00q0.00,5.25 -2.625,8.875t-7.625,3.625q-4.75,0.00 -10.00-3.00l-112.25-59.00l-112.25,59.00q-5.50,3.00 -10.00,3.00q-5.25,0.00 -7.875-3.625t-2.625-8.875q0.00-1.50 0.50-5.00l 21.50-125.00l-91.00-88.50q-6.25-6.75 -6.25-12.00q0.00-9.25 14.00-11.50l 125.50-18.25l 56.25-113.75q 4.75-10.25 12.25-10.25t 12.25,10.25l 56.25,113.75 l 125.50,18.25q 14.00,2.25 14.00,11.50z" ></path></svg>