<?xml version="1.0" encoding="utf-8"?> <!-- Generator: IcoMoon.io --> <!DOCTYPE svg PUBLIC "-//W3C//DTD SVG 1.1//EN" "http://www.w3.org/Graphics/SVG/1.1/DTD/svg11.dtd"> <svg width="512" height="512" viewBox="0 0 512 512" xmlns="http://www.w3.org/2000/svg" xmlns:xlink="http://www.w3.org/1999/xlink" fill="#505050"><path d="M 64,448 L 512,448 L 512,512 L 0,512 L 0,0 L 64,0 ZM 144,416 C 117.49,416 96,394.51 96,368 C 96,341.49 117.49,320 144,320 C 145.414,320 146.811,320.074 148.194,320.193 L 199.79,234.2 C 194.87,226.665 192,217.669 192,207.999 C 192,181.489 213.49,159.999 240,159.999 C 266.51,159.999 288,181.489 288,207.999 C 288,217.67 285.13,226.665 280.21,234.2 L 331.806,320.193 C 333.189,320.074 334.586,320 336,320 C 337.068,320 338.124,320.047 339.175,320.115 L 424.353,171.054 C 419.085,163.35 416,154.036 416,143.999 C 416,117.489 437.49,95.999 464,95.999 C 490.51,95.999 512,117.489 512,143.999 C 512,170.509 490.51,191.999 464,191.999 C 462.93,191.999 461.876,191.952 460.825,191.883 L 375.647,340.945 C 380.915,348.648 384,357.963 384,368 C 384,394.51 362.51,416 336,416 C 309.49,416 288,394.51 288,368 C 288,358.33 290.87,349.334 295.789,341.799 L 244.194,255.807 C 242.811,255.926 241.414,256 240,256 C 238.586,256 237.189,255.927 235.806,255.807 L 184.21,341.8 C 189.13,349.334 192,358.33 192,368 C 192,394.51 170.51,416 144,416 Z" ></path></svg>