<?xml version="1.0" encoding="utf-8"?> <!-- Generator: IcoMoon.io --> <!DOCTYPE svg PUBLIC "-//W3C//DTD SVG 1.1//EN" "http://www.w3.org/Graphics/SVG/1.1/DTD/svg11.dtd"> <svg width="512" height="512" viewBox="0 0 512 512" xmlns="http://www.w3.org/2000/svg" xmlns:xlink="http://www.w3.org/1999/xlink" fill="#505050"><path d="M 463.906,0L 319.625,0 c-26.453,0-63.398,15.303-82.102,34.007L 14.028,257.502c-18.704,18.704-18.704,49.312,0,68.016 l 172.455,172.453c 18.704,18.705, 49.311,18.705, 68.015,0l 223.495-223.494C 496.697,255.772, 512,218.826, 512,192.375L 512,48.094 C 512,21.642, 490.357,0, 463.906,0z M 400,160c-26.51,0-48-21.49-48-48s 21.49-48, 48-48s 48,21.49, 48,48S 426.51,160, 400,160z" ></path></svg>