<?xml version="1.0" encoding="utf-8"?> <!-- Generator: IcoMoon.io --> <!DOCTYPE svg PUBLIC "-//W3C//DTD SVG 1.1//EN" "http://www.w3.org/Graphics/SVG/1.1/DTD/svg11.dtd"> <svg width="544" height="512" viewBox="0 0 544 512" xmlns="http://www.w3.org/2000/svg" xmlns:xlink="http://www.w3.org/1999/xlink" fill="#505050"><path d="M 496,32L 384,32 c-26.4,0-63.273,15.273-81.941,33.941L 113.941,254.059c-18.667,18.667-18.667,49.214,0,67.882l 140.118,140.117 c 18.667,18.668, 49.214,18.668, 67.882,0l 188.117-188.117C 528.727,255.273, 544,218.4, 544,192L 544,80 C 544,53.6, 522.4,32, 496,32z M 432,192 c-26.51,0-48-21.49-48-48s 21.49-48, 48-48s 48,21.49, 48,48S 458.51,192, 432,192zM 43.313,299.313 L 214.502,470.502 C 196.37,480.082 173.271,477.271 158.059,462.058 L 17.941,321.941 C -0.726,303.273 -0.726,272.726 17.941,254.059 L 206.059,65.941 C 224.727,47.273 261.6,32 288,32 L 43.313,276.686 C 37.091,282.909 37.091,293.090 43.313,299.313 Z" ></path></svg>