<?xml version="1.0" encoding="utf-8"?> <!-- Generator: IcoMoon.io --> <!DOCTYPE svg PUBLIC "-//W3C//DTD SVG 1.1//EN" "http://www.w3.org/Graphics/SVG/1.1/DTD/svg11.dtd"> <svg width="512" height="512" viewBox="0 0 512 512" xmlns="http://www.w3.org/2000/svg" xmlns:xlink="http://www.w3.org/1999/xlink" fill="#505050"><path d="M 288.368,223.6l 92.624,0 c-11.744-45.376-47.248-80.912-92.624-92.624L 288.368,223.6 zM 288.368,288.4l0,92.592 c 45.376-11.68, 80.88-47.248, 92.624-92.592L 288.368,288.4 zM 223.568,223.6L 223.568,130.976 c-45.376,11.712-80.944,47.248-92.624,92.624L 223.568,223.6 zM 223.568,288.4L 130.944,288.4 c 11.68,45.344, 47.248,80.912, 92.624,92.592L 223.568,288.4 zM 288.368,64.848c 81.184,13.744, 144.992,77.568, 158.752,158.752L 512,223.6 C 497.184,106.624, 405.376,14.784, 288.368,0L 288.368,64.848 z M 64.816,223.6C 78.56,142.4, 142.368,78.592, 223.568,64.848L 223.568,0 C 106.624,14.784, 14.752,106.624,0,223.6L 64.816,223.6 zM 223.568,447.12c-81.184-13.744-144.992-77.504-158.752-158.72L0,288.4 C 14.752,405.376, 106.624,497.248, 223.568,512 L 223.568,447.12 zM 447.12,288.4c-13.744,81.216-77.568,144.976-158.752,158.72L 288.368,512 C 405.376,497.248, 497.184,405.376, 512,288.4 L 447.12,288.4 z" ></path></svg>