<?xml version="1.0" encoding="utf-8"?> <!-- Generator: IcoMoon.io --> <!DOCTYPE svg PUBLIC "-//W3C//DTD SVG 1.1//EN" "http://www.w3.org/Graphics/SVG/1.1/DTD/svg11.dtd"> <svg width="512" height="512" viewBox="0 0 512 512" xmlns="http://www.w3.org/2000/svg" xmlns:xlink="http://www.w3.org/1999/xlink" fill="#505050"><path d="M 512,224l-50.462,0 C 447.718,134.88, 377.12,64.282, 288,50.462L 288,0 l-64,0 l0,50.462 C 134.88,64.282, 64.282,134.88, 50.462,224L0,224 l0,64 l 50.462,0 C 64.282,377.12, 134.88,447.718, 224,461.538L 224,512 l 64,0 l0-50.462 C 377.12,447.718, 447.718,377.12, 461.538,288L 512,288 L 512,224 z M 396.411,224 L 346.53,224 c-9.642-27.275-31.255-48.889-58.53-58.53l0-49.881 C 341.757,127.834, 384.166,170.244, 396.411,224z M 256,288 c-17.673,0-32-14.327-32-32c0-17.673, 14.327-32, 32-32c 17.673,0, 32,14.327, 32,32C 288,273.673, 273.673,288, 256,288z M 224,115.589 l0,49.881 c-27.275,9.641-48.889,31.255-58.53,58.53l-49.881,0 C 127.834,170.244, 170.244,127.834, 224,115.589z M 115.589,288l 49.881,0 c 9.641,27.275, 31.255,48.889, 58.53,58.53l0,49.881 C 170.244,384.166, 127.834,341.757, 115.589,288z M 288,396.411L 288,346.53 c 27.275-9.642, 48.889-31.255, 58.53-58.53l 49.881,0 C 384.166,341.757, 341.757,384.166, 288,396.411z" ></path></svg>