<?xml version="1.0" encoding="utf-8"?> <!-- Generator: IcoMoon.io --> <!DOCTYPE svg PUBLIC "-//W3C//DTD SVG 1.1//EN" "http://www.w3.org/Graphics/SVG/1.1/DTD/svg11.dtd"> <svg width="352" height="448" viewBox="0 0 352 448" xmlns="http://www.w3.org/2000/svg" xmlns:xlink="http://www.w3.org/1999/xlink" fill="#505050"><path d="M 352.00,351.25q0.00,30.00 -18.25,47.375t-48.50,17.375l-218.50,0.00 q-30.25,0.00 -48.50-17.375t-18.25-47.375q0.00-13.25 0.875-25.875t 3.50-27.25t 6.625-27.125t 10.75-24.375t 15.50-20.25t 21.375-13.375t 27.875-5.00q 2.25,0.00 10.50,5.375t 18.625,12.00t 27.00,12.00t 33.375,5.375t 33.375-5.375t 27.00-12.00t 18.625-12.00t 10.50-5.375q 15.25,0.00 27.875,5.00t 21.375,13.375t 15.50,20.25 t 10.75,24.375t 6.625,27.125t 3.50,27.25t 0.875,25.875zM 272.00,128.00q0.00,39.75 -28.125,67.875t-67.875,28.125t-67.875-28.125t-28.125-67.875t 28.125-67.875t 67.875-28.125t 67.875,28.125t 28.125,67.875z" ></path></svg>